<svg width="210" height="69" viewBox="0 0 210 69" fill="none" xmlns="http://www.w3.org/2000/svg">
<path d="M40.2188 26.8438C40.2188 25.4479 40.1458 24.2812 40 23.3438C39.875 22.4062 39.6354 21.6562 39.2812 21.0938C38.9479 20.5312 38.4792 20.1354 37.875 19.9062C37.2708 19.6771 36.625 19.5625 35.9375 19.5625C35.2708 19.5625 34.8646 19.5729 34.7188 19.5938L34.5938 19.0312C37.9896 18.0104 41.1458 17.5 44.0625 17.5C44.5 18.6042 44.7188 19.7917 44.7188 21.0625V21.9688C45.9271 21.1562 47.0417 20.4479 48.0625 19.8438C49.0833 19.2396 50.0833 18.7292 51.0625 18.3125C52.0625 17.8958 53.0833 17.5833 54.125 17.375C55.1667 17.1667 56.3125 17.0625 57.5625 17.0625C58.6875 17.0625 59.8021 17.2083 60.9062 17.5C62.0312 17.7917 63.0312 18.3125 63.9062 19.0625C64.8021 19.8125 65.5208 20.8333 66.0625 22.125C66.625 23.4167 66.9062 25.0521 66.9062 27.0312V46.4688C66.9062 46.9688 67.0208 47.3854 67.25 47.7188C67.5 48.0521 67.8125 48.3333 68.1875 48.5625C68.5833 48.7917 69.0312 48.9896 69.5312 49.1562C70.0312 49.3021 70.5521 49.4583 71.0938 49.625L70.8125 50.375C69.6458 50.125 68.0938 50 66.1562 50C64.9688 50 63.5833 50.1667 62 50.5L61.8125 50.1875C62.2292 49.5833 62.4375 48.4792 62.4375 46.875V28.1875C62.4375 26.4375 62.2708 25.0104 61.9375 23.9062C61.6042 22.7812 61.1458 21.9062 60.5625 21.2812C60 20.6354 59.3333 20.1875 58.5625 19.9375C57.8125 19.6875 57.0104 19.5625 56.1562 19.5625C55.1146 19.5625 54.1354 19.6562 53.2188 19.8438C52.3229 20.0312 51.4167 20.3229 50.5 20.7188C49.6042 21.0938 48.6875 21.5729 47.75 22.1562C46.8125 22.7188 45.8021 23.3854 44.7188 24.1562V45.7188C44.7188 46.3854 44.7708 46.9271 44.875 47.3438C44.9792 47.7396 45.1979 48.0729 45.5312 48.3438C45.8646 48.6146 46.3333 48.8542 46.9375 49.0625C47.5417 49.2708 48.3333 49.5 49.3125 49.75L49.0625 50.5C47.8542 50.3333 46.8229 50.2083 45.9688 50.125C45.1354 50.0417 44.4583 50 43.9375 50C42.75 50 41.3646 50.1667 39.7812 50.5L39.5938 50.1875C40.0104 49.5833 40.2188 48.4792 40.2188 46.875V26.8438ZM85.1688 44.375C85.1688 46.0208 85.5542 47.2396 86.325 48.0312C87.0958 48.8229 88.4604 49.3958 90.4188 49.75L90.1688 50.5C87.7729 50.1667 85.9188 50 84.6063 50C83.3146 50 81.8563 50.1667 80.2313 50.5L80.0438 50.1875C80.4604 49.5833 80.6688 48.4792 80.6688 46.875V9.4375C80.6688 6.47917 80.3146 4.5 79.6063 3.5C78.9188 2.47917 77.4396 2.04167 75.1688 2.1875L75.0438 1.625C78.4813 0.604167 81.6375 0.09375 84.5125 0.09375C84.95 1.17708 85.1688 2.36458 85.1688 3.65625V44.375ZM99.3063 26.8438C99.3063 23.8854 98.9521 21.9062 98.2438 20.9062C97.5563 19.8854 96.0771 19.4479 93.8063 19.5938L93.6813 19.0312C97.1188 18.0104 100.275 17.5 103.15 17.5C103.588 18.5833 103.806 19.7708 103.806 21.0625V44.375C103.806 46.0208 104.192 47.2396 104.963 48.0312C105.733 48.8229 107.098 49.3958 109.056 49.75L108.806 50.5C106.41 50.1667 104.556 50 103.244 50C101.952 50 100.494 50.1667 98.8688 50.5L98.6813 50.1875C99.0979 49.5833 99.3063 48.4792 99.3063 46.875V26.8438ZM96.1188 5.90625C98.0979 4.76042 100.338 3.80208 102.838 3.03125C102.838 4.76042 103.119 6.46875 103.681 8.15625L103.275 8.71875C101.296 8.84375 99.2333 9.39583 97.0875 10.375C96.5667 8.9375 96.2438 7.44792 96.1188 5.90625ZM141.912 57.9375C141.912 60.0208 141.131 61.8646 139.569 63.4688C138.027 65.0938 136.027 66.3125 133.569 67.125C131.11 67.9583 128.454 68.375 125.6 68.375C123.412 68.375 121.444 68.0833 119.694 67.5C117.944 66.9167 116.496 65.9479 115.35 64.5938C114.204 63.2396 113.631 61.5938 113.631 59.6562C113.631 57.6354 114.517 55.7604 116.287 54.0312C118.058 52.3021 120.392 50.8333 123.287 49.625C120.662 49.0417 118.777 48.4062 117.631 47.7188C116.485 47.0104 115.912 45.9167 115.912 44.4375C115.912 43.125 116.319 42.0729 117.131 41.2812C117.944 40.4688 119.329 39.8125 121.287 39.3125C118.996 38.6042 117.204 37.3854 115.912 35.6562C114.642 33.9271 114.006 31.6875 114.006 28.9375C114.006 26.9375 114.59 25.0521 115.756 23.2812C116.944 21.5104 118.496 20.1042 120.412 19.0625C122.35 18.0208 124.371 17.5 126.475 17.5C128.892 17.5 131.027 17.875 132.881 18.625L143.131 17.5L143.381 18.5625L141.131 20.875L135.569 20.375C137.715 22.2917 138.787 25.0625 138.787 28.6875C138.787 30.5208 138.235 32.3021 137.131 34.0312C136.027 35.7604 134.506 37.1771 132.569 38.2812C130.631 39.3854 128.558 39.9375 126.35 39.9375C123.35 40.4583 121.423 40.9167 120.569 41.3125C119.735 41.7083 119.319 42.3438 119.319 43.2188C119.319 43.7396 119.892 44.25 121.037 44.75C122.183 45.2292 124.444 45.8958 127.819 46.75C129.36 47.125 130.662 47.4688 131.725 47.7812C132.787 48.0729 133.85 48.4167 134.912 48.8125C135.975 49.1875 136.84 49.5729 137.506 49.9688C138.194 50.3646 138.84 50.8229 139.444 51.3438C140.069 51.8854 140.537 52.4688 140.85 53.0938C141.183 53.7396 141.444 54.4583 141.631 55.25C141.819 56.0417 141.912 56.9375 141.912 57.9375ZM127.506 50.4375L126.225 50.125C123.6 51.1042 121.527 52.4271 120.006 54.0938C118.485 55.7604 117.725 57.4479 117.725 59.1562C117.725 60.3646 118.048 61.4271 118.694 62.3438C119.36 63.2812 120.246 64.0104 121.35 64.5312C122.454 65.0521 123.631 65.4375 124.881 65.6875C126.131 65.9375 127.433 66.0625 128.787 66.0625C134.892 66.0625 137.944 63.6771 137.944 58.9062C137.944 56.5938 137.069 54.7917 135.319 53.5C133.59 52.2083 130.985 51.1875 127.506 50.4375ZM125.194 19.7188C122.569 19.7188 120.746 20.3958 119.725 21.75C118.725 23.0833 118.225 25.3125 118.225 28.4375C118.225 29.8958 118.454 31.1979 118.912 32.3438C119.392 33.4688 119.985 34.3646 120.694 35.0312C121.402 35.6771 122.225 36.2188 123.162 36.6562C124.121 37.0729 125.006 37.3542 125.819 37.5C126.652 37.6458 127.475 37.7188 128.287 37.7188C130.412 37.7188 131.985 36.9583 133.006 35.4375C134.027 33.9167 134.537 31.8333 134.537 29.1875C134.537 27.6667 134.298 26.3229 133.819 25.1562C133.36 23.9688 132.787 23.0521 132.1 22.4062C131.433 21.7396 130.652 21.1979 129.756 20.7812C128.86 20.3438 128.048 20.0625 127.319 19.9375C126.59 19.7917 125.881 19.7188 125.194 19.7188ZM173.863 28.1875C173.863 26.4375 173.696 25.0104 173.363 23.9062C173.029 22.7812 172.571 21.9062 171.988 21.2812C171.425 20.6354 170.758 20.1875 169.988 19.9375C169.238 19.6875 168.435 19.5625 167.581 19.5625C166.54 19.5625 165.56 19.6562 164.644 19.8438C163.748 20.0312 162.842 20.3229 161.925 20.7188C161.029 21.0938 160.113 21.5729 159.175 22.1562C158.238 22.7188 157.227 23.3854 156.144 24.1562V45.7188C156.144 46.3854 156.196 46.9271 156.3 47.3438C156.404 47.7396 156.623 48.0729 156.956 48.3438C157.29 48.6146 157.758 48.8542 158.363 49.0625C158.967 49.2708 159.758 49.5 160.738 49.75L160.488 50.5C159.279 50.3333 158.248 50.2083 157.394 50.125C156.56 50.0417 155.717 50 154.863 50C154.008 50 152.79 50.1667 151.206 50.5L151.019 50.1875C151.435 49.5833 151.644 48.4792 151.644 46.875V9.4375C151.644 8.04167 151.571 6.875 151.425 5.9375C151.3 5 151.06 4.25 150.706 3.6875C150.373 3.125 149.904 2.72917 149.3 2.5C148.696 2.27083 148.05 2.15625 147.363 2.15625C146.696 2.15625 146.29 2.16667 146.144 2.1875L146.019 1.625C149.415 0.604167 152.571 0.09375 155.488 0.09375C155.925 1.19792 156.144 2.38542 156.144 3.65625V21.9688C157.581 20.9896 158.883 20.1875 160.05 19.5625C161.238 18.9167 162.342 18.4062 163.363 18.0312C164.404 17.6562 165.383 17.3958 166.3 17.25C167.238 17.1042 168.185 17.0312 169.144 17.0312C170.456 17.0312 171.654 17.2083 172.738 17.5625C173.842 17.8958 174.79 18.4583 175.581 19.25C176.373 20.0208 177.008 21.0417 177.488 22.3125C177.967 23.5833 178.248 25.1562 178.331 27.0312V46.4688C178.331 46.9688 178.446 47.3854 178.675 47.7188C178.925 48.0521 179.238 48.3333 179.613 48.5625C180.008 48.7917 180.456 48.9896 180.956 49.1562C181.456 49.3021 181.977 49.4583 182.519 49.625L182.238 50.375C181.071 50.125 179.706 50 178.144 50C176.581 50 175.008 50.1667 173.425 50.5L173.238 50.1875C173.654 49.5833 173.863 48.4792 173.863 46.875V28.1875ZM196.906 41.375C196.906 44.2083 197.219 46.1667 197.844 47.25C198.469 48.3125 199.479 48.8438 200.875 48.8438C202.396 48.8438 204.25 48.2708 206.438 47.125L207.406 48.4688C203.969 50.3438 201.156 51.2812 198.969 51.2812C197.802 51.2812 196.854 51.1771 196.125 50.9688C195.396 50.7604 194.729 50.3542 194.125 49.75C193.521 49.1458 193.083 48.2604 192.812 47.0938C192.562 45.9062 192.438 44.375 192.438 42.5V21.3125L187.75 21.5938V19.5938C189.396 19.2396 190.958 19.0104 192.438 18.9062V14.4688C194.208 13.4688 195.656 12.0417 196.781 10.1875L197.75 10.5625C197.396 11.3958 197.167 12.3438 197.062 13.4062C196.958 14.4479 196.906 16.2188 196.906 18.7188H207.656V19.8125C206.781 20.1667 205.896 20.4688 205 20.7188C204.104 20.9479 203.177 21.0625 202.219 21.0625H196.906V41.375Z" fill="white"/>
<path d="M3.1875 34.2188C3.1875 36.4271 3.55208 38.5625 4.28125 40.625C5.01042 42.7083 6.05208 44.5521 7.40625 46.1562C8.76042 47.7812 10.3958 49.0729 12.3125 50.0312C14.25 51.0104 16.4167 51.5 18.8125 51.5C20.3125 51.5 21.7292 51.2396 23.0625 50.7188C24.3958 50.2188 25.5521 49.4271 26.5312 48.3438C27.5312 47.2812 28.3125 45.9062 28.875 44.2188C29.4583 42.5521 29.75 40.5625 29.75 38.25L28.5312 37.125H8.125C8.08333 36.7708 8.0625 36.4271 8.0625 36.0938C8.0625 35.7604 8.0625 35.4271 8.0625 35.0938C8.0625 32.8229 8.32292 30.7604 8.84375 28.9062C9.38542 27.0521 10.1042 25.4583 11 24.125C11.9167 22.8125 12.9896 21.7917 14.2188 21.0625C15.4479 20.3333 16.75 19.9688 18.125 19.9688C19 19.9688 19.8854 20.0312 20.7812 20.1562C21.6979 20.3021 22.5833 20.5208 23.4375 20.8125C24.3125 21.1042 25.1562 21.4792 25.9688 21.9375C26.7812 22.3958 27.5312 22.9479 28.2188 23.5938L29.5 22.25C27.8542 20.625 26.0625 19.4688 24.125 18.7812C22.1875 18.0729 19.9479 17.7188 17.4062 17.7188C15.4062 17.7188 13.5312 18.1042 11.7812 18.875C10.0521 19.6458 8.55208 20.75 7.28125 22.1875C6.01042 23.625 5.01042 25.3542 4.28125 27.375C3.55208 29.4167 3.1875 31.6979 3.1875 34.2188ZM18.125 49.3438C14.8958 49.3438 12.5312 48.5 11.0312 46.8125C9.53125 45.1458 8.625 42.7396 8.3125 39.5938H25.7188C25.5521 43.0104 24.7812 45.4896 23.4062 47.0312C22.0521 48.5729 20.2917 49.3438 18.125 49.3438Z" fill="white"/>
</svg>
